<svg xmlns="http://www.w3.org/2000/svg" id="Layer_1" viewBox="0 0 55 55"><g id="g26" transform="translate(233.9023 598.1869)"><path id="path28" class="st0" d="M-197.5-578.6c0-5.8-4.4-9.6-9-9.6-4.8 0-9.2 3.9-9.2 9.6 0 5.9 4.4 9.6 9.2 9.6 4.6 0 9-3.8 9-9.6m11.4 0c0 11.8-9.3 19.6-20.4 19.6-11.3 0-20.6-7.9-20.6-19.6 0-11.7 9.3-19.6 20.6-19.6 11 0 20.4 7.9 20.4 19.6"/></g><path id="path56_2_" class="st0" d="M54 55c0-6.1-4.9-11-11-11H11.6c-6.1 0-11 4.9-11 11"/><path id="path56" class="st0" d="M.6 55H54"/></svg>